<svg xmlns="http://www.w3.org/2000/svg" width="192" height="192" viewBox="0 0 24 24" fill="none" stroke="#8B5CF6" stroke-width="2" stroke-linecap="round" stroke-linejoin="round">
  <path d="M17 5c0-1.7-1.3-3-3-3s-3 1.3-3 3c0 .8.3 1.5.8 2H11c-3.9 0-7 3.1-7 7v0c0 2.2 1.8 4 4 4"/>
  <path d="M16.8 3.9c.3-.3.6-.5 1-.7 1.5-.6 3.3.1 3.9 1.6.6 1.5-.1 3.3-1.6 3.9l1.6 2.8c.2.3.2.7.2 1-.2.8-.9 1.2-1.7 1.1"/>
  <path d="M13.9 7.5c-.9.2-1.9.5-2.9.9-1.5.6-2.5 2.1-2.5 3.7 0 .7.2 1.4.5 2"/>
  <path d="M13 22H5c-1.1 0-2-.9-2-2v-8.5c0-.8.7-1.5 1.5-1.5s1.5.7 1.5 1.5V14"/>
  <path d="M19 13V4c0-.6-.4-1-1-1s-1 .4-1 1v9"/>
  <path d="M19 7h2c.6 0 1 .4 1 1s-.4 1-1 1h-2"/>
  <path d="M15 16v4c0 1.1.9 2 2 2s2-.9 2-2v-4h-4z"/>
  <path d="M16 10c0-.6.4-1 1-1s1 .4 1 1v2h-2"/>
</svg>